<svg id="Layer_1" data-name="Layer 1" xmlns="http://www.w3.org/2000/svg" viewBox="0 0 55.72807 10">
  <defs>
    <style>
      .cls-1 {
        fill: #1e293b;
      }
    </style>
  </defs>
  <title>catstagram</title>
  <g>
    <path class="cls-1" d="M4.23912,7.79688a3.342,3.342,0,0,1-1.36328-.2793,3.50568,3.50568,0,0,1-1.11572-.77344,3.54165,3.54165,0,0,1-.74707-1.14746A3.69828,3.69828,0,0,1,.74742,4.188a3.6723,3.6723,0,0,1,.26563-1.39942,3.52206,3.52206,0,0,1,.74267-1.14306A3.55845,3.55845,0,0,1,2.86705.87158,3.32649,3.32649,0,0,1,4.23912.58789,3.52707,3.52707,0,0,1,5.41881.77246a3.32082,3.32082,0,0,1,1.0166.59863.27866.27866,0,0,1,.10352.13965.28467.28467,0,0,1,.00488.14844.21885.21885,0,0,1-.07227.1167.223.223,0,0,1-.09863.17139.32876.32876,0,0,1-.207.0581.40971.40971,0,0,1-.23437-.09424,2.4136,2.4136,0,0,0-.73829-.4458,2.73091,2.73091,0,0,0-.9541-.14844A2.53592,2.53592,0,0,0,3.1776,1.542a2.791,2.791,0,0,0-.87305.6211,2.87849,2.87849,0,0,0-.58935.918A2.91714,2.91714,0,0,0,1.50377,4.188,2.93282,2.93282,0,0,0,1.7152,5.3086a2.88348,2.88348,0,0,0,.58935.91309,2.77534,2.77534,0,0,0,.87305.62109,2.52811,2.52811,0,0,0,1.06152.22461,2.57962,2.57962,0,0,0,.90918-.16113,3.2012,3.2012,0,0,0,.81934-.459.33539.33539,0,0,1,.26074-.08106.37731.37731,0,0,1,.22949.11621.36217.36217,0,0,1,.09473.26172.35839.35839,0,0,1-.02734.13867.57838.57838,0,0,1-.08106.13965,2.97461,2.97461,0,0,1-1.03027.58984A3.74374,3.74374,0,0,1,4.23912,7.79688Z"/>
    <path class="cls-1" d="M9.72057,7.752A2.3047,2.3047,0,0,1,8.496,7.42285a2.3764,2.3764,0,0,1-.85449-.89551A2.58415,2.58415,0,0,1,7.326,5.25a2.51341,2.51341,0,0,1,.3291-1.28711,2.4136,2.4136,0,0,1,.89551-.89551A2.503,2.503,0,0,1,9.828,2.73926a2.464,2.464,0,0,1,1.26465.32812,2.42944,2.42944,0,0,1,.89062.89551A2.578,2.578,0,0,1,12.32115,5.25l-.30566.144a2.40658,2.40658,0,0,1-.30176,1.20166,2.26337,2.26337,0,0,1-.81933.84571A2.23607,2.23607,0,0,1,9.72057,7.752ZM9.828,7.05859a1.72838,1.72838,0,0,0,.8916-.23339,1.66065,1.66065,0,0,0,.62109-.64844,1.91359,1.91359,0,0,0,.2246-.92676,1.91114,1.91114,0,0,0-.22461-.93164,1.74965,1.74965,0,0,0-2.38516-.65845l-.01816.01045a1.75543,1.75543,0,0,0-.62988.648A1.84406,1.84406,0,0,0,8.07311,5.25a1.8464,1.8464,0,0,0,.23437.92676A1.69911,1.69911,0,0,0,9.828,7.05859Zm2.10644.64844a.39.39,0,0,1-.27929-.10351.36331.36331,0,0,1-.1084-.27442V5.84424l.17187-.792.60254.19775V7.3291a.35572.35572,0,0,1-.1123.27442.39465.39465,0,0,1-.27443.10348Z"/>
    <path class="cls-1" d="M13.39244,3.62109a.35786.35786,0,0,1-.252-.08984.30127.30127,0,0,1-.09961-.23437.31471.31471,0,0,1,.09961-.23829.34849.34849,0,0,1,.252-.09472H15.6151a.35166.35166,0,0,1,.252.09472.31471.31471,0,0,1,.09961.23829.30127.30127,0,0,1-.09961.23437.3612.3612,0,0,1-.252.08984ZM15.5526,7.707a1.56318,1.56318,0,0,1-1.418-.84668,1.8626,1.8626,0,0,1-.21191-.89014V1.605a.38885.38885,0,0,1,.10351-.27881.3979.3979,0,0,1,.54492,0,.37637.37637,0,0,1,.1084.27881V5.97021a.99958.99958,0,0,0,.24707.69678.805.805,0,0,0,.626.27442h.26074a.32737.32737,0,0,1,.252.10839.39991.39991,0,0,1,.09864.2793.34345.34345,0,0,1-.1211.27442.46561.46561,0,0,1-.31054.10351Z"/>
    <path class="cls-1" d="M19.035,7.752a3.27571,3.27571,0,0,1-1.09277-.18457,2.0335,2.0335,0,0,1-.8418-.52636.32313.32313,0,0,1-.08984-.27051.3957.3957,0,0,1,.14355-.26074.38265.38265,0,0,1,.293-.08594.44953.44953,0,0,1,.25586.13086,1.32652,1.32652,0,0,0,.54.36426,2.06576,2.06576,0,0,0,.77441.13964,1.5547,1.5547,0,0,0,.90918-.21093.6527.6527,0,0,0,.29688-.51758.59055.59055,0,0,0-.28321-.51319,2.541,2.541,0,0,0-.99511-.32373A2.73635,2.73635,0,0,1,17.618,4.98a1.10179,1.10179,0,0,1-.419-.86377,1.16387,1.16387,0,0,1,.252-.76514,1.52884,1.52884,0,0,1,.66211-.459,2.727,2.727,0,0,1,1.93066.04932,1.91332,1.91332,0,0,1,.71094.54443.33691.33691,0,0,1,.08984.26562A.3287.3287,0,0,1,20.7,3.981a.411.411,0,0,1-.2832.04492.45648.45648,0,0,1-.26563-.144,1.33912,1.33912,0,0,0-.51269-.35059,1.85872,1.85872,0,0,0-.65723-.1084,1.41107,1.41107,0,0,0-.751.18018.53543.53543,0,0,0-.293.46777.56878.56878,0,0,0,.10352.34229.85255.85255,0,0,0,.373.25634,3.89843,3.89843,0,0,0,.75683.20264,3.6917,3.6917,0,0,1,1.06641.32373,1.39759,1.39759,0,0,1,.5625.49072,1.194,1.194,0,0,1,.1709.625,1.21759,1.21759,0,0,1-.23828.73828,1.61093,1.61093,0,0,1-.67578.5127A2.55235,2.55235,0,0,1,19.035,7.752Z"/>
    <path class="cls-1" d="M21.871,3.62109a.35784.35784,0,0,1-.252-.08984.30127.30127,0,0,1-.09961-.23437.31471.31471,0,0,1,.09961-.23829.34845.34845,0,0,1,.252-.09472h2.22265a.35171.35171,0,0,1,.252.09472.31471.31471,0,0,1,.09961.23829.30127.30127,0,0,1-.09961.23437.3612.3612,0,0,1-.252.08984ZM24.03111,7.707a1.56314,1.56314,0,0,1-1.418-.84668,1.86261,1.86261,0,0,1-.21192-.89014V1.605a.38886.38886,0,0,1,.10352-.27881.3979.3979,0,0,1,.54492,0,.37641.37641,0,0,1,.1084.27881V5.97021a.99963.99963,0,0,0,.24707.69678.805.805,0,0,0,.626.27442h.26075a.32742.32742,0,0,1,.252.10839.39986.39986,0,0,1,.09863.2793.34348.34348,0,0,1-.12109.27442.46564.46564,0,0,1-.31055.10351Z"/>
    <path class="cls-1" d="M27.90026,7.752a2.30464,2.30464,0,0,1-1.22461-.3291,2.37643,2.37643,0,0,1-.8545-.89551A2.58429,2.58429,0,0,1,25.50572,5.25a2.51342,2.51342,0,0,1,.32911-1.28711,2.41358,2.41358,0,0,1,.8955-.89551,2.503,2.503,0,0,1,1.27735-.32812,2.464,2.464,0,0,1,1.26465.32812,2.42944,2.42944,0,0,1,.89062.89551A2.578,2.578,0,0,1,30.50084,5.25l-.30566.144a2.40668,2.40668,0,0,1-.30176,1.20166,2.26325,2.26325,0,0,1-.81934.84571A2.236,2.236,0,0,1,27.90026,7.752Zm.10742-.69336a1.72838,1.72838,0,0,0,.8916-.23339,1.66065,1.66065,0,0,0,.62109-.64844A1.91356,1.91356,0,0,0,29.745,5.25a1.91114,1.91114,0,0,0-.22461-.93164,1.74965,1.74965,0,0,0-2.38516-.65845l-.01816.01045a1.75528,1.75528,0,0,0-.62988.648,1.844,1.844,0,0,0-.23438.93164,1.84641,1.84641,0,0,0,.23438.92676,1.69913,1.69913,0,0,0,1.52051.88183Zm2.10644.64844a.39.39,0,0,1-.27929-.10351.36331.36331,0,0,1-.1084-.27442V5.84424l.17187-.792.60254.19775V7.3291a.35572.35572,0,0,1-.1123.27442.39467.39467,0,0,1-.27442.10348Z"/>
    <path class="cls-1" d="M33.98424,7.752a2.39076,2.39076,0,0,1-1.24219-.31933,2.24078,2.24078,0,0,1-.8457-.88672,2.68451,2.68451,0,0,1-.30664-1.296,2.58818,2.58818,0,0,1,.32422-1.30518,2.32808,2.32808,0,0,1,.88672-.88623,2.75356,2.75356,0,0,1,2.57421,0,2.30226,2.30226,0,0,1,.88184.88623A2.68324,2.68324,0,0,1,36.58483,5.25l-.4502.144a2.60264,2.60264,0,0,1-.27832,1.21924,2.10965,2.10965,0,0,1-.76563.83692A2.05349,2.05349,0,0,1,33.98424,7.752Zm.10742,1.93555a2.81022,2.81022,0,0,1-1.22851-.26172,2.55056,2.55056,0,0,1-.91309-.72851.344.344,0,0,1-.08105-.26563.29576.29576,0,0,1,.14355-.2207.3827.3827,0,0,1,.28809-.06348.36665.36665,0,0,1,.24316.15332,1.812,1.812,0,0,0,.64844.50391,2.10576,2.10576,0,0,0,.918.18945,1.68222,1.68222,0,0,0,.86816-.22949,1.64215,1.64215,0,0,0,.62109-.66211A2.13359,2.13359,0,0,0,35.829,7.086V5.74512l.27929-.61231.47657.11719V7.12207a2.62246,2.62246,0,0,1-.32422,1.29981,2.47063,2.47063,0,0,1-.88184.92285,2.40838,2.40838,0,0,1-1.28714.34277Zm0-2.62891a1.76191,1.76191,0,0,0,.90039-.22949,1.59674,1.59674,0,0,0,.61621-.63867A1.94716,1.94716,0,0,0,35.829,5.25a1.97291,1.97291,0,0,0-.22071-.94482,1.59719,1.59719,0,0,0-.61621-.64356,1.89833,1.89833,0,0,0-1.80957,0,1.61945,1.61945,0,0,0-.62012.64356,1.94171,1.94171,0,0,0-.22558.94482,1.91658,1.91658,0,0,0,.22558.94043,1.61916,1.61916,0,0,0,.62012.63867,1.77925,1.77925,0,0,0,.90915.22949Z"/>
    <path class="cls-1" d="M38.31334,7.707a.34589.34589,0,0,1-.37891-.37793v-4.167a.37909.37909,0,1,1,.75684,0v4.167a.34576.34576,0,0,1-.37793.37793Zm-.03613-3.05078a1.98785,1.98785,0,0,1,.2832-.98584,1.96168,1.96168,0,0,1,.69727-.68848,1.8772,1.8772,0,0,1,.96289-.252,1.4411,1.4411,0,0,1,.69824.13525.30409.30409,0,0,1,.1748.36866.25535.25535,0,0,1-.1123.18457.38568.38568,0,0,1-.19824.0498c-.0752,0-.16016-.00342-.25586-.00928a2.13205,2.13205,0,0,0-.93653.0586,1.35186,1.35186,0,0,0-.65722.42724,1.0922,1.0922,0,0,0-.24219.71143Z"/>
    <path class="cls-1" d="M43.912,7.752a2.30473,2.30473,0,0,1-1.22461-.3291,2.37648,2.37648,0,0,1-.85449-.89551A2.58421,2.58421,0,0,1,41.51744,5.25a2.51353,2.51353,0,0,1,.3291-1.28711,2.41367,2.41367,0,0,1,.89551-.89551,2.503,2.503,0,0,1,1.27736-.32812,2.464,2.464,0,0,1,1.26464.32812,2.42944,2.42944,0,0,1,.89062.89551A2.578,2.578,0,0,1,46.51256,5.25l-.30566.144a2.40658,2.40658,0,0,1-.30176,1.20166,2.26325,2.26325,0,0,1-.81934.84571A2.236,2.236,0,0,1,43.912,7.752Zm.10743-.69336a1.72838,1.72838,0,0,0,.8916-.23339,1.66058,1.66058,0,0,0,.62109-.64844A1.91362,1.91362,0,0,0,45.7567,5.25a1.91114,1.91114,0,0,0-.22461-.93164,1.74965,1.74965,0,0,0-2.38516-.65845l-.01816.01045a1.7552,1.7552,0,0,0-.62988.648,1.844,1.844,0,0,0-.23438.93164,1.84641,1.84641,0,0,0,.23438.92676,1.69913,1.69913,0,0,0,1.52051.88183Zm2.10644.64844a.39.39,0,0,1-.2793-.10351.36332.36332,0,0,1-.10839-.27442V5.84424l.17187-.792.60254.19775V7.3291a.35572.35572,0,0,1-.1123.27442.39468.39468,0,0,1-.27445.10348Z"/>
    <path class="cls-1" d="M48.24986,7.707a.39.39,0,0,1-.27929-.10351.36331.36331,0,0,1-.1084-.27442V3.1709a.3706.3706,0,0,1,.3537-.38676q.017-.00076.034,0a.363.363,0,0,1,.27442.10791.38886.38886,0,0,1,.10352.27881V7.3291a.35589.35589,0,0,1-.37793.37793Zm3.1045,0a.39466.39466,0,0,1-.27442-.10351.35569.35569,0,0,1-.1123-.27442v-2.583a1.35271,1.35271,0,0,0-.31543-.95849,1.05679,1.05679,0,0,0-.80957-.3374,1.16363,1.16363,0,0,0-.87305.35107,1.24441,1.24441,0,0,0-.34181.90869h-.51367a2.233,2.233,0,0,1,.248-1.03027,1.82954,1.82954,0,0,1,2.4839-.72436l.03173.01781a1.67417,1.67417,0,0,1,.63476.69727A2.36885,2.36885,0,0,1,51.742,4.74607v2.583a.36331.36331,0,0,1-.1084.27442A.39.39,0,0,1,51.35436,7.707Zm3.09668,0a.39.39,0,0,1-.2793-.10351.36331.36331,0,0,1-.1084-.27442v-2.583a1.35235,1.35235,0,0,0-.31445-.95849,1.05889,1.05889,0,0,0-.81055-.3374,1.14256,1.14256,0,0,0-.86816.35546,1.2767,1.2767,0,0,0-.32813.94043h-.666a2.21563,2.21563,0,0,1,.26074-1.05761,1.797,1.797,0,0,1,.69726-.70655,2.02114,2.02114,0,0,1,1.0127-.252,1.76447,1.76447,0,0,1,.92676.24316,1.63252,1.63252,0,0,1,.62988.69727A2.39487,2.39487,0,0,1,54.829,4.74609v2.583a.35588.35588,0,0,1-.378.37791Z"/>
  </g>
</svg>
