<svg id="Layer_1" data-name="Layer 1" xmlns="http://www.w3.org/2000/svg" viewBox="0 0 10 10">
  <defs>
    <style>
      .cls-1 {
        fill: #fff;
      }
    </style>
  </defs>
  <title>catTab</title>
  <g>
    <path class="cls-1" d="M9.61889,5.77833,9.584,5.75943c-.16939-.09241-.32146-.17542-.47586-.24776L9.1086,5.4971a3.33077,3.33077,0,0,0-.84654-2.18722l.049-1.42168a.74878.74878,0,0,0-.31946-.68877.68114.68114,0,0,0-.6931.01247l-.01616.0095-1.24246.79289A4.70264,4.70264,0,0,0,3.94781,2.017L2.70144,1.2214l-.016-.00951a.68117.68117,0,0,0-.69267-.01267.74851.74851,0,0,0-.31946.68887l.00021.00518L1.7448,3.30143A3.33114,3.33114,0,0,0,.89134,5.4971l.00043.01457c-.15451.07245-.30637.15524-.47534.24754l-.03538.01912a.25163.25163,0,1,0,.2411.44175h0l.03527-.01932c.0998-.0545.19284-.105.28314-.15176a2.98569,2.98569,0,0,0,.08638.35346c-.16041.07488-.31809.16063-.49181.25557l-.0282.01542A.25154.25154,0,0,0,.748,7.115l.0282-.01542c.16274-.08881.30288-.16506.44006-.23032A4.11886,4.11886,0,0,0,5,8.88929a4.11978,4.11978,0,0,0,3.784-2.02c.13718.06526.27732.14151.43995.23032l.0282.01542a.25154.25154,0,1,0,.24244-.44081l-.00134-.00073L9.46492,6.658c-.17372-.09483-.33129-.18058-.49181-.25557A2.96484,2.96484,0,0,0,9.05949,6.049c.0903.04678.18355.09747.28366.152l.03475.019a.25156.25156,0,0,0,.241-.44165ZM5,8.38618a3.64652,3.64652,0,0,1-3.30844-1.6933A2.78594,2.78594,0,0,1,1.988,6.63343a.25158.25158,0,0,0-.0705-.4982L1.915,6.1356a3.19607,3.19607,0,0,0-.41588.08923,2.49515,2.49515,0,0,1-.08153-.38324,2.63459,2.63459,0,0,1,.44535-.10329.25156.25156,0,1,0-.07425-.49762,3.32774,3.32774,0,0,0-.38768.08058,2.82322,2.82322,0,0,1,.78434-1.758L2.18513,3.563a.25016.25016,0,0,0,.06748-.18408L2.17605,1.87056a.27607.27607,0,0,1,.08132-.24331c.05491-.0338.14088.00232.18217.02376l1.327.847.41165.27215a.25115.25115,0,0,0,.35146-.3429,4.22515,4.22515,0,0,1,.92564-.00169A.25128.25128,0,0,0,5.80586,2.77l.41788-.27627L7.54435,1.651c.04161-.02133.128-.05766.1827-.02376a.27657.27657,0,0,1,.08132.24458L7.75652,3.3762a.25327.25327,0,0,0,.066.19442l-.00063.00053a2.82255,2.82255,0,0,1,.77737,1.75011,3.33188,3.33188,0,0,0-.38768-.08058.25156.25156,0,1,0-.07424.49762,2.63233,2.63233,0,0,1,.44534.10329,2.50153,2.50153,0,0,1-.08153.38314,3.21306,3.21306,0,0,0-.41588-.08913.25158.25158,0,0,0-.073.49783,2.78345,2.78345,0,0,1,.29644.05945A3.64744,3.64744,0,0,1,5,8.38618Z"/>
    <g>
      <circle class="cls-1" cx="6.39187" cy="4.98755" r="0.54377"/>
      <circle class="cls-1" cx="3.60808" cy="4.98755" r="0.54377"/>
    </g>
  </g>
</svg>
